<svg width="28" height="28" viewBox="0 0 28 28" fill="none" xmlns="http://www.w3.org/2000/svg">
<path d="M16.334 18.6667V21C16.334 21.6189 16.0882 22.2124 15.6506 22.65C15.213 23.0875 14.6195 23.3334 14.0007 23.3334H5.83398C5.21515 23.3334 4.62165 23.0875 4.18407 22.65C3.74648 22.2124 3.50065 21.6189 3.50065 21L3.50065 7.00004C3.50065 6.3812 3.74648 5.78771 4.18407 5.35013C4.62165 4.91254 5.21515 4.66671 5.83398 4.66671H14.0007C14.6195 4.66671 15.213 4.91254 15.6506 5.35013C16.0882 5.78771 16.334 6.3812 16.334 7.00004L16.334 9.33337" stroke="white" stroke-linecap="round" stroke-linejoin="round"/>
<path d="M7.93359 14L21.9336 14M21.9336 14L18.4336 17.5M21.9336 14L18.4336 10.5" stroke="white" stroke-linecap="round" stroke-linejoin="round"/>
</svg>
