<svg width="80" height="80" viewBox="0 0 80 80" fill="none" xmlns="http://www.w3.org/2000/svg">
<g clip-path="url(#clip0_72_378)">
<path d="M40 16.6667C40.0039 15.3334 39.7412 14.0129 39.2273 12.7827C38.7134 11.5525 37.9587 10.4374 37.0075 9.50316C36.0564 8.56889 34.928 7.83425 33.6888 7.34244C32.4496 6.85064 31.1246 6.6116 29.7916 6.63938C28.4587 6.66716 27.1447 6.96121 25.9271 7.50423C24.7094 8.04724 23.6127 8.82826 22.7013 9.80135C21.7899 10.7744 21.0823 11.92 20.6201 13.1705C20.1579 14.4211 19.9505 15.7514 20.01 17.0833C18.0506 17.5871 16.2316 18.5302 14.6907 19.841C13.1498 21.1519 11.9274 22.7962 11.1161 24.6495C10.3048 26.5027 9.92583 28.5163 10.0079 30.5377C10.09 32.5591 10.631 34.5353 11.59 36.3167C9.9039 37.6864 8.57805 39.4474 7.72776 41.4464C6.87747 43.4455 6.52849 45.622 6.71118 47.7866C6.89386 49.9513 7.60269 52.0385 8.77598 53.8667C9.94928 55.695 11.5515 57.2089 13.4433 58.2767C13.2097 60.0841 13.3491 61.9203 13.8529 63.6717C14.3567 65.4232 15.2143 67.0528 16.3726 68.4599C17.5309 69.8669 18.9653 71.0216 20.5874 71.8525C22.2094 72.6835 23.9846 73.1731 25.8032 73.2911C27.6219 73.4091 29.4454 73.1531 31.1613 72.5387C32.8771 71.9243 34.4487 70.9648 35.7792 69.7192C37.1096 68.4736 38.1705 66.9685 38.8965 65.2969C39.6225 63.6252 39.998 61.8225 40 60V16.6667Z" stroke="#30A5FF" stroke-width="5" stroke-linecap="round" stroke-linejoin="round"/>
<path d="M39.9999 16.6667C39.996 15.3334 40.2587 14.0129 40.7726 12.7827C41.2865 11.5525 42.0412 10.4374 42.9924 9.50316C43.9435 8.56889 45.0719 7.83425 46.3111 7.34244C47.5503 6.85064 48.8753 6.6116 50.2083 6.63938C51.5412 6.66716 52.8552 6.96121 54.0728 7.50423C55.2904 8.04724 56.3872 8.82826 57.2986 9.80135C58.21 10.7744 58.9176 11.92 59.3798 13.1705C59.842 14.4211 60.0494 15.7514 59.9899 17.0833C61.9493 17.5871 63.7683 18.5302 65.3092 19.841C66.8501 21.1519 68.0725 22.7962 68.8838 24.6495C69.6951 26.5027 70.0741 28.5163 69.992 30.5377C69.9099 32.5591 69.3689 34.5353 68.4099 36.3167C70.096 37.6864 71.4218 39.4474 72.2721 41.4464C73.1224 43.4455 73.4714 45.622 73.2887 47.7866C73.106 49.9513 72.3972 52.0385 71.2239 53.8667C70.0506 55.695 68.4484 57.2089 66.5566 58.2767C66.7902 60.0841 66.6508 61.9203 66.147 63.6717C65.6431 65.4232 64.7856 67.0528 63.6273 68.4599C62.469 69.8669 61.0346 71.0216 59.4125 71.8525C57.7905 72.6835 56.0153 73.1731 54.1967 73.2911C52.378 73.4091 50.5545 73.1531 48.8386 72.5387C47.1228 71.9243 45.5512 70.9648 44.2207 69.7192C42.8903 68.4736 41.8293 66.9685 41.1034 65.2969C40.3774 63.6252 40.0019 61.8225 39.9999 60V16.6667Z" stroke="#30A5FF" stroke-width="5" stroke-linecap="round" stroke-linejoin="round"/>
<path d="M50 43.3332C47.2015 42.3488 44.7577 40.5566 42.9777 38.1833C41.1977 35.81 40.1615 32.9621 40 29.9999C39.8385 32.9621 38.8022 35.81 37.0222 38.1833C35.2422 40.5566 32.7985 42.3488 30 43.3332M58.6633 21.6666C59.47 20.2685 59.9264 18.696 59.9933 17.0833M20.01 17.0833C20.0759 18.6957 20.5311 20.2682 21.3366 21.6666M11.59 36.3199C12.1998 35.8233 12.8523 35.3815 13.54 34.9999M66.46 34.9999C67.1476 35.3815 67.8002 35.8233 68.41 36.3199M20 59.9999C17.7027 60.001 15.4442 59.4085 13.4433 58.2799M66.5566 58.2799C64.5558 59.4085 62.2972 60.001 60 59.9999" stroke="#30A5FF" stroke-width="5" stroke-linecap="round" stroke-linejoin="round"/>
</g>
<defs>
<clipPath id="clip0_72_378">
<rect width="80" height="80" fill="white"/>
</clipPath>
</defs>
</svg>
